<?xml version="1.0" encoding="UTF-8" standalone="no"?>
<!-- Created with Inkscape (http://www.inkscape.org/) -->

<svg
   version="1.1"
   id="svg2"
   width="574"
   height="130"
   viewBox="0 0 574 130"
   sodipodi:docname="snf_logo_dark_bg.png.svg"
   inkscape:version="1.1.2 (0a00cf5339, 2022-02-04)"
   xmlns:inkscape="http://www.inkscape.org/namespaces/inkscape"
   xmlns:sodipodi="http://sodipodi.sourceforge.net/DTD/sodipodi-0.dtd"
   xmlns="http://www.w3.org/2000/svg"
   xmlns:svg="http://www.w3.org/2000/svg">
  <defs
     id="defs6" />
  <sodipodi:namedview
     id="namedview4"
     pagecolor="#ffffff"
     bordercolor="#666666"
     borderopacity="1.0"
     inkscape:pageshadow="2"
     inkscape:pageopacity="0.0"
     inkscape:pagecheckerboard="true"
     showgrid="false"
     inkscape:zoom="2.3310105"
     inkscape:cx="297.08146"
     inkscape:cy="86.0142"
     inkscape:window-width="2498"
     inkscape:window-height="1376"
     inkscape:window-x="62"
     inkscape:window-y="958"
     inkscape:window-maximized="1"
     inkscape:current-layer="g8" />
  <g
     inkscape:groupmode="layer"
     inkscape:label="Image"
     id="g8">
    <g
       id="g210"
       style="fill:#ffffff"
       transform="translate(1.9470154,0.06546016)">
      <path
         style="fill:#ffffff;fill-opacity:1"
         d="m 500.116,126.82332 c -0.0712,-1.64232 -0.79226,-2.8534 -1.866,-3.13399 -1.64009,-0.4286 -1.63812,-0.46461 0.0314,-0.57333 2.02843,-0.13209 3.10929,1.91222 2.41919,4.57559 -0.31476,1.21479 -0.50664,0.92979 -0.58457,-0.86827 z M 228.37817,117 c 0,-6.325 0.16237,-8.9125 0.36082,-5.75 0.19845,3.1625 0.19845,8.3375 0,11.5 -0.19845,3.1625 -0.36082,0.575 -0.36082,-5.75 z m 14.95804,4 c 0,-4.125 0.17651,-5.8125 0.39226,-3.75 0.21574,2.0625 0.21574,5.4375 0,7.5 -0.21575,2.0625 -0.39226,0.375 -0.39226,-3.75 z m 85.98386,1 c 0,-3.575 0.1815,-5.0375 0.40333,-3.25 0.22182,1.7875 0.22182,4.7125 0,6.5 -0.22183,1.7875 -0.40333,0.325 -0.40333,-3.25 z m 73.0581,-5 c 0,-6.325 0.16237,-8.9125 0.36082,-5.75 0.19845,3.1625 0.19845,8.3375 0,11.5 -0.19845,3.1625 -0.36082,0.575 -0.36082,-5.75 z m 52.02892,-5 c 0,-9.075 0.1516,-12.7875 0.3369,-8.25 0.18529,4.5375 0.18529,11.9625 0,16.5 -0.1853,4.5375 -0.3369,0.825 -0.3369,-8.25 z m 57.97108,5 c 0,-6.325 0.16237,-8.9125 0.36082,-5.75 0.19845,3.1625 0.19845,8.3375 0,11.5 -0.19845,3.1625 -0.36082,0.575 -0.36082,-5.75 z m -17.0683,-0.5 c 0.006,-3.3 0.1923,-4.52944 0.41486,-2.73209 0.22256,1.79735 0.21797,4.49735 -0.0102,6 -0.22818,1.50265 -0.41027,0.0321 -0.40466,-3.26791 z M 381.33621,113 c 0,-4.125 0.17651,-5.8125 0.39226,-3.75 0.21574,2.0625 0.21574,5.4375 0,7.5 -0.21575,2.0625 -0.39226,0.375 -0.39226,-3.75 z M 9.2254013,92.25 C 9.0409045,77.311899 8.743921,74 7.5888936,74 5.2824112,74 1,68.110892 1,64.939051 1,63.144112 2.1087963,60.790595 3.8976641,58.788504 6.273907,56.129026 7.5335246,55.545455 10.897664,55.545455 c 11.33891,0 13.081965,16.543014 1.999525,18.977126 L 10.045543,75.148908 9.7481726,92.824454 9.4508027,110.5 Z M 495.28601,100.5 c 0.008,-2.75 0.20172,-3.756313 0.43157,-2.23625 0.22986,1.520062 0.22371,3.77006 -0.0136,5 -0.23736,1.22994 -0.42542,-0.0138 -0.41792,-2.76375 z m 12.90487,1.81239 c 3.27705,-0.3783 3.74017,-0.78409 4.13052,-3.619231 0.42528,-3.088848 0.43538,-3.078824 0.30912,0.306841 -0.12581,3.3736 -0.27497,3.50431 -4.13052,3.61923 l -4,0.11924 z M 207.21238,67.810365 207,56.120731 l -3.75,-0.392263 -3.75,-0.392262 3.78138,-0.168103 c 2.33272,-0.103702 3.9746,0.335398 4.28572,1.146162 0.27738,0.722846 0.35883,6.235346 0.181,12.25 L 207.42476,79.5 Z M 283.34941,71 c 0,-4.675 0.17226,-6.5875 0.3828,-4.25 0.21053,2.3375 0.21053,6.1625 0,8.5 -0.21054,2.3375 -0.3828,0.425 -0.3828,-4.25 z M 303.22271,62.810365 303,46.120731 l -3.75,-0.392263 -3.75,-0.392262 3.78138,-0.168103 c 2.29903,-0.102204 3.97547,0.337653 4.27646,1.122038 0.27229,0.709578 0.35839,8.472078 0.19133,17.25 L 303.44541,79.5 Z m 58.98967,5 L 362,56.120731 l -3.75,-0.392263 -3.75,-0.392262 3.78138,-0.168103 c 2.33272,-0.103702 3.9746,0.335398 4.28572,1.146162 0.27738,0.722846 0.35883,6.235346 0.181,12.25 L 362.42476,79.5 Z M 411.33621,72 c 0,-4.125 0.17651,-5.8125 0.39226,-3.75 0.21574,2.0625 0.21574,5.4375 0,7.5 -0.21575,2.0625 -0.39226,0.375 -0.39226,-3.75 z m 14.42545,-8.707261 c 1.24391,-0.239193 3.04391,-0.230112 4,0.02018 0.95609,0.250292 -0.0617,0.445996 -2.26166,0.434897 -2.2,-0.0111 -2.98225,-0.215885 -1.73834,-0.455077 z m -264,-8 c 1.24391,-0.239193 3.04391,-0.230112 4,0.02018 0.95609,0.250292 -0.0617,0.445996 -2.26166,0.434897 -2.2,-0.0111 -2.98225,-0.215885 -1.73834,-0.455077 z m 15,0 c 1.24391,-0.239193 3.04391,-0.230112 4,0.02018 0.95609,0.250292 -0.0617,0.445996 -2.26166,0.434897 -2.2,-0.0111 -2.98225,-0.215885 -1.73834,-0.455077 z m 30.37452,-5.982374 c -0.12464,-2.919232 -0.45409,-3.222889 -3.88618,-3.581897 l -3.75,-0.392262 3.78138,-0.168103 c 4.10212,-0.182361 5.18955,1.046165 4.43388,5.009171 -0.34359,1.801947 -0.47343,1.607577 -0.57908,-0.866909 z m 155,0 c -0.12464,-2.919232 -0.45409,-3.222889 -3.88618,-3.581897 l -3.75,-0.392262 3.78138,-0.168103 c 4.10212,-0.182361 5.18955,1.046165 4.43388,5.009171 -0.34359,1.801947 -0.47343,1.607577 -0.57908,-0.866909 z m -84.37452,-4.017626 c 1.24391,-0.239193 3.04391,-0.230112 4,0.02018 0.95609,0.250292 -0.0617,0.445996 -2.26166,0.434897 -2.2,-0.0111 -2.98225,-0.215885 -1.73834,-0.455077 z M 115.17635,19.500862 c -2.34685,-1.03533 -3.78742,-2.646896 -4.90169,-5.483554 L 108.69662,10 H 91.907327 C 82.673216,10 74.908703,9.6625 74.652854,9.25 74.397006,8.8375 82.245448,8.6321312 92.093838,8.7936249 106.72716,9.0335818 110,8.836971 110,7.7179389 c 0,-1.9763199 4.04291,-5.456223 7.26941,-6.2570892 6.3519,-1.57663717 12.53453,4.4402255 11.30378,11.0007003 -1.18685,6.326458 -7.49696,9.642077 -13.39684,7.039312 z"
         id="path218" />
      <path
         style="fill:#ffffff;fill-opacity:1"
         d="m 5.8880529,127.54978 c -5.30142798,-2.98158 -6.15001959,-11.15954 -1.5861801,-15.28616 6.8803642,-6.22123 17.7422232,-0.17629 16.0057182,8.90766 -1.123101,5.87512 -9.066713,9.38899 -14.4195381,6.3785 z M 62.374274,20.284992 c -3.736708,-0.688239 -6.828819,-4.964377 -6.828819,-9.4437 0,-3.300565 0.597475,-4.5798081 3.243049,-6.9436279 4.248925,-3.79641433 8.174067,-3.79641433 12.422992,0 7.584818,6.7770339 1.386763,18.2704139 -8.837222,16.3873279 z"
         id="path216" />
      <path
         style="fill:#ffffff;fill-opacity:1"
         d="m 188.45613,127.74627 c -0.29157,-0.75981 -0.40098,-6.07606 -0.24313,-11.81387 L 188.5,105.5 h 3.5 3.5 v 11.5 11.5 l -3.25688,0.31387 c -2.08333,0.20078 -3.44789,-0.18391 -3.78699,-1.0676 z M 195,117 v -11 h -3 -3 v 11 11 h 3 3 z m 35.76166,11.29274 c 1.24391,-0.23919 3.04391,-0.23011 4,0.0202 0.95609,0.25029 -0.0617,0.446 -2.26166,0.4349 -2.2,-0.0111 -2.98225,-0.21589 -1.73834,-0.45508 z m 15,0 c 1.24391,-0.23919 3.04391,-0.23011 4,0.0202 0.95609,0.25029 -0.0617,0.446 -2.26166,0.4349 -2.2,-0.0111 -2.98225,-0.21589 -1.73834,-0.45508 z m 78,0 c 1.24391,-0.23919 3.04391,-0.23011 4,0.0202 0.95609,0.25029 -0.0617,0.446 -2.26166,0.4349 -2.2,-0.0111 -2.98225,-0.21589 -1.73834,-0.45508 z m 67,0 c 1.24391,-0.23919 3.04391,-0.23011 4,0.0202 0.95609,0.25029 -0.0617,0.446 -2.26166,0.4349 -2.2,-0.0111 -2.98225,-0.21589 -1.73834,-0.45508 z m 14,0 c 1.24391,-0.23919 3.04391,-0.23011 4,0.0202 0.95609,0.25029 -0.0617,0.446 -2.26166,0.4349 -2.2,-0.0111 -2.98225,-0.21589 -1.73834,-0.45508 z m 15,0 c 1.24391,-0.23919 3.04391,-0.23011 4,0.0202 0.95609,0.25029 -0.0617,0.446 -2.26166,0.4349 -2.2,-0.0111 -2.98225,-0.21589 -1.73834,-0.45508 z m 29,0 c 1.24391,-0.23919 3.04391,-0.23011 4,0.0202 0.95609,0.25029 -0.0617,0.446 -2.26166,0.4349 -2.2,-0.0111 -2.98225,-0.21589 -1.73834,-0.45508 z m 58,0 c 1.24391,-0.23919 3.04391,-0.23011 4,0.0202 0.95609,0.25029 -0.0617,0.446 -2.26166,0.4349 -2.2,-0.0111 -2.98225,-0.21589 -1.73834,-0.45508 z m 39.69447,-0.54647 c -0.29157,-0.75981 -0.40098,-6.07606 -0.24313,-11.81387 L 546.5,105.5 l 3,-0.0932 c 2.83046,-0.088 2.84459,-0.0703 0.25,0.31336 l -2.75,0.40659 v 10.93664 10.93664 h 2.95619 2.95619 l 0.3695,-7.25 0.3695,-7.25 -0.0757,7.5 -0.0757,7.5 -3.25688,0.31387 c -2.08333,0.20078 -3.44789,-0.18391 -3.78699,-1.0676 z m 14.98787,-0.0316 c -0.29824,-0.7772 -0.38328,-4.51844 -0.18899,-8.31387 l 0.35327,-6.90079 0.19586,7.75 L 562,128 h 2.95956 2.95956 l 0.35103,-7.75 0.35103,-7.75 -0.0606,8 -0.0606,8 -3.25688,0.31387 c -2.11397,0.20373 -3.44716,-0.18201 -3.79912,-1.09921 z M 209.25,114.28375 c 1.5125,-0.22913 3.9875,-0.22913 5.5,0 1.5125,0.22912 0.275,0.41659 -2.75,0.41659 -3.025,0 -4.2625,-0.18747 -2.75,-0.41659 z m 78.40451,-0.0337 c -0.25494,-0.4125 1.92553,-0.75 4.84549,-0.75 2.91996,0 5.10043,0.3375 4.84549,0.75 -0.25494,0.4125 -2.43541,0.75 -4.84549,0.75 -2.41008,0 -4.59055,-0.3375 -4.84549,-0.75 z M 332.25,108.27153 c 2.0625,-0.21574 5.4375,-0.21574 7.5,0 2.0625,0.21575 0.375,0.39226 -3.75,0.39226 -4.125,0 -5.8125,-0.17651 -3.75,-0.39226 z M 235,107.16667 c 0,-0.64167 -1.4625,-1.23409 -3.25,-1.3165 -3.19632,-0.14736 -3.20257,-0.15691 -0.37818,-0.57818 2.86612,-0.42749 5.6059,1.08363 4.31151,2.37801 C 235.3075,108.02583 235,107.80833 235,107.16667 Z m 140.76166,-1.87393 c 1.24391,-0.23919 3.04391,-0.23011 4,0.0202 0.95609,0.25029 -0.0617,0.446 -2.26166,0.4349 -2.2,-0.0111 -2.98225,-0.21589 -1.73834,-0.45508 z m 15,0 c 1.24391,-0.23919 3.04391,-0.23011 4,0.0202 0.95609,0.25029 -0.0617,0.446 -2.26166,0.4349 -2.2,-0.0111 -2.98225,-0.21589 -1.73834,-0.45508 z m 14,0 c 1.24391,-0.23919 3.04391,-0.23011 4,0.0202 0.95609,0.25029 -0.0617,0.446 -2.26166,0.4349 -2.2,-0.0111 -2.98225,-0.21589 -1.73834,-0.45508 z m 102,0 c 1.24391,-0.23919 3.04391,-0.23011 4,0.0202 0.95609,0.25029 -0.0617,0.446 -2.26166,0.4349 -2.2,-0.0111 -2.98225,-0.21589 -1.73834,-0.45508 z M 188.25,98.75 c 0.23077,-3 0.51923,-3.25 3.75,-3.25 3.23077,0 3.51923,0.25 3.75,3.25 0.24647,3.2041 0.24204,3.20763 -0.31336,0.25 -0.47069,-2.506554 -1.03596,-3 -3.43664,-3 -2.40068,0 -2.96595,0.493446 -3.43664,3 -0.5554,2.95763 -0.55983,2.9541 -0.31336,-0.25 z m 139.03651,-3.490078 c 3.18258,-0.19905 8.13258,-0.197204 11,0.0041 2.86742,0.201306 0.26349,0.364165 -5.78651,0.361909 -6.05,-0.0023 -8.39607,-0.166961 -5.21349,-0.366011 z m 121.47515,0.03282 c 1.24391,-0.239193 3.04391,-0.230112 4,0.02018 0.95609,0.250292 -0.0617,0.445996 -2.26166,0.434897 -2.2,-0.0111 -2.98225,-0.215885 -1.73834,-0.455077 z m 58,0 c 1.24391,-0.239193 3.04391,-0.230112 4,0.02018 0.95609,0.250292 -0.0617,0.445996 -2.26166,0.434897 -2.2,-0.0111 -2.98225,-0.215885 -1.73834,-0.455077 z M 396.38176,67.5 c 0.002,-6.6 0.16382,-9.169866 0.35965,-5.710812 0.19583,3.459053 0.19422,8.859053 -0.004,12 C 396.54001,76.930134 396.37979,74.1 396.38176,67.5 Z m 6.95445,4.5 c 0,-4.125 0.17651,-5.8125 0.39226,-3.75 0.21574,2.0625 0.21574,5.4375 0,7.5 -0.21575,2.0625 -0.39226,0.375 -0.39226,-3.75 z m 48.07297,-9.5 c -10e-4,-9.35 0.14916,-13.309595 0.33401,-8.7991 0.18486,4.510495 0.1858,12.160495 0.002,17 -0.1837,4.839505 -0.33495,1.1491 -0.3361,-8.2009 z m 7,0 c -10e-4,-9.35 0.14916,-13.309595 0.33401,-8.7991 0.18486,4.510495 0.1858,12.160495 0.002,17 -0.1837,4.839505 -0.33495,1.1491 -0.3361,-8.2009 z m -14.08104,5 c 0.004,-3.85 0.18518,-5.302463 0.40166,-3.227696 0.21647,2.074768 0.21284,5.224768 -0.008,7 C 444.50082,73.047537 444.3237,71.35 444.32814,67.5 Z M 333.37429,59.532989 c -0.30962,-0.806856 -0.33103,-2.044356 -0.0476,-2.75 0.28346,-0.705644 0.55091,-0.301787 0.59433,0.89746 0.0519,1.432457 0.8508,2.329114 2.32895,2.613818 l 2.25,0.433369 -2.28138,0.136182 c -1.25477,0.0749 -2.53471,-0.523973 -2.84433,-1.330829 z m -131.61263,-7.24025 c 1.24391,-0.239193 3.04391,-0.230112 4,0.02018 0.95609,0.250292 -0.0617,0.445996 -2.26166,0.434897 -2.2,-0.0111 -2.98225,-0.215885 -1.73834,-0.455077 z m 155,0 c 1.24391,-0.239193 3.04391,-0.230112 4,0.02018 0.95609,0.250292 -0.0617,0.445996 -2.26166,0.434897 -2.2,-0.0111 -2.98225,-0.215885 -1.73834,-0.455077 z"
         id="path214" />
      <path
         style="fill:#ffffff;fill-opacity:1"
         d="m 137.02975,127.41653 c -1.90863,-0.82786 -4.27812,-2.23631 -5.26551,-3.12989 -1.72161,-1.55803 -1.70666,-1.71903 0.36424,-3.9234 l 2.15951,-2.2987 2.93273,2.46773 c 5.32146,4.47772 16.17386,2.52105 13.12326,-2.36609 -0.58198,-0.93235 -4.07985,-2.4123 -7.94201,-3.36027 -11.1005,-2.72463 -14.59574,-9.19991 -8.59258,-15.918611 3.7847,-4.235818 10.76449,-5.054077 17.54122,-2.056405 5.15672,2.281061 5.53595,3.056809 2.73395,5.592576 -1.78496,1.61537 -2.08629,1.6215 -4.42356,0.0901 -3.23216,-2.1178 -9.56316,-1.6627 -11.05972,0.79503 -1.53756,2.52504 0.90245,4.13685 8.53601,5.63866 7.38904,1.4537 10.86271,4.4228 10.86271,9.28481 0,8.61465 -11.08788,13.47088 -20.97025,9.18449 z m 30.44601,0.18753 c -6.05282,-2.63721 -7.59649,-13.1992 -2.72576,-18.65003 3.2601,-3.64837 9.47567,-4.93162 14.26934,-2.94602 3.13063,1.29675 5.49062,4.35784 4.54249,5.89195 -1.13763,1.84072 -4.49069,1.83613 -6.16,-0.008 -2.10105,-2.32164 -5.69461,-2.4486 -7.50666,-0.26521 -0.74234,0.89447 -1.34972,3.31263 -1.34972,5.37369 0,6.24541 4.45606,9.11859 8.48596,5.47158 2.21351,-2.0032 7.2556,-0.38309 6.32831,2.03339 -1.5285,3.98321 -10.04227,5.64431 -15.88396,3.09909 z m 38.86129,-0.20958 c -7.29994,-3.60034 -7.54276,-16.47889 -0.39037,-20.70391 3.51247,-2.07487 8.22825,-2.16859 11.96213,-0.23773 2.74058,1.41721 4.36155,4.22046 5.66516,9.79716 l 0.64285,2.75 h -8.60841 C 210.87378,119 207,119.38026 207,119.84501 c 0,1.49136 3.59398,4.15499 5.60623,4.15499 1.07182,0 2.9325,-0.68904 4.13486,-1.53121 1.80855,-1.26675 2.53826,-1.31128 4.22512,-0.25782 2.66899,1.66681 2.17125,2.90455 -2.02576,5.03748 -4.22984,2.14961 -8.44206,2.19842 -12.6034,0.14603 z M 217,113.52305 c 0,-0.81232 -1.125,-2.21407 -2.5,-3.11501 -2.31587,-1.51741 -2.68413,-1.51741 -5,0 -4.21277,2.76031 -3.21556,4.59196 2.5,4.59196 3.74309,0 5,-0.37128 5,-1.47695 z m 44.47576,14.08101 C 257.89227,126.04273 256,122.37827 256,117 c 0,-5.41077 1.70819,-8.63365 5.53969,-10.45181 5.83686,-2.76977 14.24862,-1.14818 15.86267,3.05795 0.72855,1.89859 0.82489,1.74522 -2.02649,3.22623 -1.73301,0.90012 -2.45206,0.74093 -3.90499,-0.86455 -2.16234,-2.38935 -5.74222,-2.55073 -7.57571,-0.34151 -0.74234,0.89447 -1.34972,3.31263 -1.34972,5.37369 0,6.24541 4.45606,9.11859 8.48596,5.47158 2.21351,-2.0032 7.2556,-0.38309 6.32831,2.03339 -1.5285,3.98321 -10.04227,5.64431 -15.88396,3.09909 z m 25.28681,-0.16945 c -7.74906,-4.20459 -7.49653,-16.93522 0.4171,-21.02752 7.1151,-3.67936 15.4709,0.56881 16.52122,8.39955 l 0.55151,4.11181 -8.8762,0.29078 -8.8762,0.29077 2.25,2.25 c 2.63316,2.63316 5.88065,2.89423 8.33807,0.6703 1.37333,-1.24285 2.18978,-1.34197 3.82874,-0.46482 2.89044,1.54691 2.61249,2.7512 -1.16681,5.05548 -3.82416,2.33164 -9.15079,2.50539 -12.98743,0.42365 z m 10.64638,-13.28729 C 298.41679,112.51661 295.32828,109.75 292.5,109.75 c -2.82828,0 -5.91679,2.76661 -4.90895,4.39732 0.68629,1.11044 9.13161,1.11044 9.8179,0 z m 52.89552,12.89677 c -2.16409,-1.31953 -3.58698,-3.25499 -4.40829,-5.99627 -3.36417,-11.2286 6.81766,-19.59916 17.61043,-14.47766 8.14152,3.86341 7.64892,18.43696 -0.72182,21.35502 -4.60076,1.60383 -8.90307,1.3001 -12.48032,-0.88109 z m 10.56715,-4.3894 c 2.11421,-2.54747 2.46869,-7.48637 0.72799,-10.14301 C 358.41487,107.65115 352,110.65043 352,117 c 0,5.47611 5.89921,9.23622 8.87162,5.65469 z m 16.04109,4.47571 c -2.05724,-1.66585 -2.35477,-2.91916 -2.73007,-11.5 L 373.76144,106 H 377.38072 381 v 6.91821 C 381,121.32489 381.56608,123 384.40699,123 388.08251,123 389,121.06235 389,113.3 V 106 h 3.5 3.5 v 11 11 h -3.5 c -1.925,0 -3.5,-0.47552 -3.5,-1.0567 0,-0.5923 -0.97677,-0.37255 -2.22251,0.5 -2.98752,2.09254 -7.05345,1.96357 -9.86478,-0.3129 z m 58.19736,0.51941 c -1.31446,-0.75347 -2.98601,-2.44542 -3.71456,-3.75988 -1.75911,-3.1738 -1.74378,-10.31577 0.0295,-13.7449 2.32103,-4.48838 9.11094,-6.53412 13.64074,-4.10985 1.80406,0.96551 1.93426,0.6626 1.93426,-4.5 L 447,96 h 3.5 3.5 v 16.04608 16.04607 l -4.25,-0.0338 c -2.3375,-0.0186 -6.05,0.19014 -8.25,0.46381 -2.42942,0.3022 -4.93839,-0.0403 -6.38993,-0.87239 z m 9.57737,-4.43547 c 3.79501,-2.41308 3.2472,-11.46553 -0.77102,-12.74087 -5.97843,-1.89748 -9.96371,6.76259 -5.64954,12.27653 1.08262,1.3837 4.57722,1.63643 6.42056,0.46434 z m 16.86695,3.43096 c -5.10812,-5.10812 -2.40091,-9.98464 6.517,-11.73913 4.63209,-0.91131 5.95131,-1.55637 5.71693,-2.79542 -0.4227,-2.23458 -6.58796,-2.79646 -7.40218,-0.67462 -0.63947,1.66641 -6.38614,2.24742 -6.38614,0.64566 0,-7.00445 15.08776,-9.89269 19.23469,-3.68209 0.40408,0.60517 0.74158,4.5878 0.75,8.8503 0.009,4.48979 0.43598,7.75 1.01531,7.75 0.55,0 1,0.94923 1,2.10941 0,1.87897 -0.40965,2.04297 -3.75,1.50133 -4.51437,-0.73203 -4.65376,-0.73196 -9.94561,0.005 -3.5964,0.50072 -4.56041,0.21933 -6.75,-1.97025 z M 472.8,123.8 c 0.66,-0.66 1.2,-2.27075 1.2,-3.57946 0,-2.16083 -0.29861,-2.31541 -3.25,-1.6824 -4.29895,0.92203 -4.75,1.24845 -4.75,3.43754 0,2.85196 4.55133,4.07299 6.8,1.82432 z M 490,127 c -1.64444,-1.64444 -2,-3.33333 -2,-9.5 0,-6.83333 -0.17778,-7.5 -2,-7.5 -1.33333,0 -2,-0.66667 -2,-2 0,-1.3136 0.66667,-2 1.9425,-2 1.5674,0 2.00188,-0.81378 2.25,-4.21416 0.28191,-3.863417 0.578,-4.269061 3.5575,-4.873704 L 495,96.252599 v 4.873701 c 0,4.53195 0.1753,4.8737 2.5,4.8737 1.83333,0 2.5,0.53333 2.5,2 0,1.47624 -0.66667,2 -2.54569,2 -2.50536,0 -2.54101,0.10692 -2.25,6.75 0.26867,6.1332 0.50129,6.7792 2.54569,7.06955 1.62851,0.23129 2.25,0.99088 2.25,2.75 0,2.16886 -0.43052,2.43045 -4,2.43045 -2.66667,0 -4.66667,-0.66667 -6,-2 z m 32.30447,0.0441 c -2.16409,-1.31953 -3.58698,-3.25499 -4.40829,-5.99627 -3.35628,-11.20226 6.81617,-19.59987 17.56413,-14.49963 1.79442,0.85151 3.77493,2.67268 4.40113,4.04705 1.58264,3.47353 1.42183,9.95629 -0.33106,13.346 -2.58953,5.00762 -11.47661,6.60842 -17.22591,3.10285 z m 10.80036,-4.6704 c 0.74234,-0.89447 1.34972,-3.31263 1.34972,-5.37369 0,-6.34751 -4.46253,-9.11273 -8.62581,-5.34501 -2.312,2.09233 -2.41035,8.04485 -0.17375,10.51627 2.05071,2.26601 5.65592,2.36397 7.44984,0.20243 z M 189,117 v -11 h 3 3 v 11 11 h -3 -3 z m 40,0 v -11 h 3 c 1.65,0 3,0.46156 3,1.02568 0,0.58793 1.25919,0.37453 2.95034,-0.5 3.94261,-2.0388 7.33662,-1.92365 10.13695,0.34392 2.05724,1.66585 2.35477,2.91916 2.73007,11.5 L 251.23856,128 H 247.61928 244 l -0.0153,-7.25 c -0.0181,-8.57359 -0.71304,-10.02301 -4.5932,-9.58008 L 236.5,111.5 l -0.29044,8.25 -0.29044,8.25 H 232.45956 229 Z m 93,-5 V 96 h 10.5 10.5 v 3 3 h -7 -7 v 3.5 3.5 h 7 7 v 3 3 h -7 -7 v 6.5 6.5 h -3.5 -3.5 z m 81,5 v -11 h 3.5 c 1.925,0 3.5,0.47552 3.5,1.0567 0,0.5923 0.97677,0.37255 2.22251,-0.5 3.00489,-2.1047 7.05744,-1.96011 9.91671,0.35383 2.13025,1.72398 2.39462,2.84695 2.70731,11.5 L 425.19306,128 h -3.55609 -3.55609 l -0.29044,-8.25 -0.29044,-8.25 -2.89149,-0.33008 c -3.88016,-0.44293 -4.57509,1.00649 -4.5932,9.58008 L 410,128 h -3.5 -3.5 z m 102,0 v -11 h 3.5 3.5 v 11 11 h -3.5 -3.5 z m 42,0 v -11 h 3 c 1.65,0 3,0.47552 3,1.0567 0,0.5923 0.97677,0.37255 2.22251,-0.5 3.12164,-2.18648 8.36331,-1.97088 10.77749,0.4433 1.7193,1.7193 2,3.33333 2,11.5 v 9.5 h -3 -3 v -7.3 c 0,-7.79944 -0.914,-9.7 -4.66482,-9.7 C 554.16839,111 553,113.81218 553,121.43426 V 128 h -3 -3 z M 10,92 c 0,-10.666667 0.372549,-17 1,-17 0.627451,0 1,6.333333 1,17 0,10.66667 -0.372549,17 -1,17 -0.627451,0 -1,-6.33333 -1,-17 z m 179,7 c 0,-2.666667 0.33333,-3 3,-3 2.66667,0 3,0.333333 3,3 0,2.66667 -0.33333,3 -3,3 -2.66667,0 -3,-0.33333 -3,-3 z m 316,0 c 0,-2.761905 0.27778,-3 3.5,-3 3.22222,0 3.5,0.238095 3.5,3 0,2.7619 -0.27778,3 -3.5,3 -3.22222,0 -3.5,-0.2381 -3.5,-3 z M 135.37337,77.082165 c -5.32409,-2.41768 -6.10557,-3.79441 -3.58475,-6.315229 l 2.03133,-2.031331 3.17764,2.262679 c 3.96349,2.822252 10.25637,3.176326 12.71716,0.715541 2.35301,-2.353016 0.74234,-4.867389 -3.7971,-5.927517 C 133.68989,62.930667 131,61.100202 131,55.634859 c 0,-8.970773 11.8749,-13.22734 22.25,-7.975531 3.25383,1.647069 3.39517,2.446826 0.84093,4.758385 -1.75849,1.591406 -2.14897,1.603632 -4.95034,0.154987 -3.90093,-2.017245 -8.53095,-2.012201 -10.21016,0.01112 -1.77015,2.132903 -0.11656,4.67229 3.6738,5.641789 1.59268,0.407373 4.83201,1.222 7.19852,1.810281 7.42566,1.845915 10.04691,6.810443 7.05869,13.368862 -2.46325,5.406243 -13.51562,7.297716 -21.48807,3.67741 z M 165.50743,77.75 C 165.27104,77.0625 164.13805,72.675 162.98968,68 161.8413,63.325 160.66851,58.7125 160.38347,57.75 159.95985,56.319534 160.50001,56 163.3418,56 h 3.47657 l 1.24295,7.25 c 0.68362,3.9875 1.54783,7.600843 1.92046,8.029651 0.37264,0.428808 1.50279,-2.833692 2.51145,-7.25 L 174.32715,56 h 3.72871 3.7287 l 1.7448,7.25 c 0.95964,3.9875 2.00629,7.7 2.32588,8.25 0.3196,0.55 1.28065,-2.6 2.13568,-7 1.53702,-7.909502 1.59111,-8.003545 4.78184,-8.313358 3.74065,-0.36321 3.6749,-0.607202 1.72724,6.409451 -0.825,2.972149 -2.19481,7.903813 -3.04402,10.959254 l -1.54403,5.555346 -4.20597,-0.305346 L 181.5,78.5 180.0769,70.75 C 179.2942,66.4875 178.33921,63 177.95471,63 c -0.3845,0 -0.99985,1.9125 -1.36744,4.25 -0.3676,2.3375 -1.11745,5.9375 -1.66636,8 -0.94226,3.540581 -1.22098,3.75 -4.99084,3.75 -2.29838,0 -4.17524,-0.530468 -4.42264,-1.25 z M 200,67.5 V 56 h 3.5 3.5 V 67.5 79 h -3.5 -3.5 z m 15.14145,9.444948 c -3.2505,-1.981705 -3.30157,-2.110538 -1.58737,-4.004711 1.64442,-1.817058 1.94348,-1.844242 4.17848,-0.379814 2.42203,1.586972 7.7714,2.268951 8.90506,1.135286 1.54032,-1.540311 -0.89581,-3.507339 -5.13017,-4.142321 -7.17702,-1.07626 -10.25334,-5.422651 -7.49113,-10.583877 1.56491,-2.924068 7.70863,-4.389935 12.73097,-3.037559 4.91023,1.322188 6.0554,2.693925 3.98087,4.768456 -1.27474,1.274741 -2.04832,1.313278 -4.99234,0.248706 -3.73177,-1.349428 -7.15318,-0.701188 -6.50841,1.233122 0.21655,0.649651 3.05351,1.886915 6.30435,2.749474 6.81539,1.808354 8.93536,4.429852 7.32292,9.055303 -1.80715,5.183993 -11.42699,6.790411 -17.71323,2.957935 z m 25.38543,0.492439 c -4.04665,-2.110073 -4.07753,-2.171447 -2.15879,-4.291631 1.64824,-1.821279 1.78377,-1.819702 5.59324,0.06507 3.07738,1.522568 4.34181,1.697302 5.97137,0.825192 3.14069,-1.680848 2.50232,-2.851942 -2.1827,-4.004184 -7.16276,-1.761622 -9.21541,-3.237213 -9.56823,-6.878356 -0.39738,-4.100981 0.99989,-5.828016 5.90395,-7.297307 3.19779,-0.958082 4.61485,-0.86034 8.38137,0.578108 4.84643,1.850871 5.37273,2.623837 3.08135,4.525518 -1.13323,0.940499 -2.20211,0.933287 -4.87402,-0.03289 -3.69779,-1.337138 -7.08687,-0.664258 -6.43929,1.278478 0.22079,0.662385 2.84258,1.822809 5.82618,2.57872 6.83958,1.732842 7.93869,2.669561 7.93869,6.765756 0,6.539611 -9.8546,9.860093 -17.47312,5.887522 z M 276,62.5 V 46 h 3.77529 c 3.72683,0 3.85625,0.134774 10.08346,10.5 3.4695,5.775 6.44715,10.5 6.617,10.5 0.16984,0 0.0677,-4.725 -0.22709,-10.5 L 295.71277,46 H 299.35639 303 V 62.5 79 h -3.48132 c -3.36545,0 -3.68997,-0.354875 -9.75,-10.6619 L 283.5,57.6762 283.21617,68.3381 282.93234,79 H 279.46617 276 Z m 35.14614,14.889809 C 309.66261,76.350703 309,74.830608 309,72.466349 c 0,-4.093587 2.5899,-6.159204 9.12025,-7.274021 3.43987,-0.58723 4.37975,-1.170932 4.37975,-2.720004 0,-2.536513 -5.19894,-3.420452 -6.11267,-1.039295 C 316.03315,62.355999 314.59704,63 312.89301,63 310.67791,63 310,62.536747 310,61.023053 c 0,-3.975778 7.71434,-6.715606 14.08137,-5.001143 4.87662,1.313138 5.47036,2.671415 6.16011,14.092194 l 0.52024,8.614104 -8.73472,0.08241 c -6.26309,0.05909 -9.342,-0.342949 -10.88086,-1.420809 z m 11.66328,-6.087046 c 0.30613,-3.163147 0.27486,-3.187323 -2.93255,-2.267451 -1.78308,0.511382 -3.68075,1.368567 -4.21704,1.904855 -1.57043,1.57043 1.32826,4.200556 4.25457,3.860391 2.09931,-0.24403 2.6438,-0.901881 2.89502,-3.497795 z m 16.76201,6.125808 C 338.40712,76.264264 338,73.80303 338,67.928571 338,60.666667 337.83183,60 336,60 c -1.33333,0 -2,-0.666667 -2,-2 0,-1.333333 0.66667,-2 2,-2 1.65751,0 2,-0.666667 2,-3.893011 C 338,48.111796 339.10631,47 343.08179,47 344.68856,47 345,47.730623 345,51.5 c 0,4.133333 0.2037,4.5 2.5,4.5 1.83333,0 2.5,0.533333 2.5,2 0,1.476239 -0.66667,2 -2.54569,2 -2.50536,0 -2.54101,0.106925 -2.25,6.75 0.26867,6.133204 0.50129,6.7792 2.54569,7.069551 1.62851,0.231285 2.25,0.990883 2.25,2.75 C 350,78.777609 349.59478,79 345.57143,79 c -2.69264,0 -5.04455,-0.615975 -6,-1.571429 z M 355,67.5 V 56 h 3.5 3.5 V 67.5 79 h -3.5 -3.5 z m 16.70725,9.484363 c -5.50488,-4.330139 -5.81671,-13.589187 -0.62518,-18.562991 3.78515,-3.626403 11.28172,-4.023454 15.59274,-0.82586 5.96496,4.42436 6.3256,14.899207 0.66623,19.35087 -3.59486,2.827715 -12.06107,2.848283 -15.63379,0.03798 z M 383.4433,71.777494 C 386.50981,67.399426 384.03237,60 379.5,60 c -2.57705,0 -5.5,3.811133 -5.5,7.171259 0,6.137864 6.23895,9.181086 9.4433,4.606235 z M 397,67.5 V 56 h 2.91667 c 1.60416,0 3.07285,0.468548 3.26374,1.041218 0.21745,0.652372 1.57317,0.429556 3.63023,-0.596638 3.16575,-1.579286 6.1924,-1.437231 9.05137,0.424823 1.72957,1.126474 3.03844,7.843562 3.09444,15.880597 L 419,79 H 415.5 412 V 71.2 C 412,63.184782 411.11253,61 407.8567,61 404.714,61 403,64.960584 403,72.222506 V 79 h -3 -3 z m 28.61931,9.631831 c -2.13859,-2.363115 -2.06389,-7.419514 0.13906,-9.413162 0.96711,-0.875218 4.00461,-1.96789 6.75,-2.42816 4.02324,-0.674501 4.99163,-1.220365 4.99163,-2.813681 0,-2.596972 -4.40986,-3.320586 -6.10538,-1.001832 -0.79158,1.082556 -2.28916,1.553015 -4.28134,1.34497 C 424.20326,62.516072 424.11201,62.374422 425.2966,60 c 1.88563,-3.779599 8.44661,-5.587493 13.9534,-3.844893 L 443.5,57.5 l 0.2965,7.996502 c 0.16308,4.398076 0.72558,8.425576 1.25,8.95 0.52443,0.524424 0.9535,1.719924 0.9535,2.656667 0,1.479104 -1.2341,1.71072 -9.38069,1.760572 -7.79003,0.04767 -9.65528,-0.246007 -11,-1.73191 z m 12.19011,-5.829068 c 0.30613,-3.163147 0.27486,-3.187323 -2.93255,-2.267451 -4.11182,1.179256 -5.11,2.193588 -4.282,4.351309 0.46986,1.224433 1.5614,1.633381 3.78278,1.417217 2.7038,-0.263108 3.16383,-0.732428 3.43177,-3.501075 z M 452,62.5 V 46 h 3 3 V 62.5 79 h -3 -3 z M 62,74.327673 C 59.546204,73.364724 56.828994,70.653019 55.909988,68.25 55.064214,66.038469 54.758423,66 38.024751,66 27.341584,66 21,65.627508 21,65 21,64.372492 27.341584,64 38.024751,64 54.758423,64 55.064214,63.961531 55.909988,61.75 56.871474,59.235905 59.6031,56.622073 62.25,55.683384 63.823873,55.125231 64,53.34866 64,38.031385 64,27.343795 64.372477,21 65,21 c 0.627508,0 1,6.341584 1,17.024751 0,16.733672 0.03847,17.039463 2.25,17.885237 6.384264,2.441587 8.406995,10.888892 3.727273,15.56579 C 69.438399,74.013119 64.670952,75.375842 62,74.327673 Z M 200,49 c 0,-2.761905 0.27778,-3 3.5,-3 3.22222,0 3.5,0.238095 3.5,3 0,2.761905 -0.27778,3 -3.5,3 -3.22222,0 -3.5,-0.238095 -3.5,-3 z m 155,0 c 0,-2.761905 0.27778,-3 3.5,-3 3.22222,0 3.5,0.238095 3.5,3 0,2.761905 -0.27778,3 -3.5,3 -3.22222,0 -3.5,-0.238095 -3.5,-3 z M 75,11 c 0,-0.627451 6.333333,-1 17,-1 10.66667,0 17,0.372549 17,1 0,0.627451 -6.33333,1 -17,1 -10.666667,0 -17,-0.372549 -17,-1 z"
         id="path212" />
    </g>
  </g>
</svg>
